HIERARCHY
ROOT hip
{
	OFFSET 0.000000 0.000000 0.000000 
	CHANNELS 6 Xposition Yposition Zposition Zrotation Yrotation Xrotation
	JOINT abdomen
	{
		OFFSET 0.000000 20.688101 -0.731520 
		CHANNELS 3 Zrotation Xrotation Yrotation
		JOINT chest
		{
			OFFSET 0.000000 11.704300 -0.487680 
			CHANNELS 3 Zrotation Xrotation Yrotation
			JOINT neck
			{
				OFFSET 0.000000 22.189400 -2.194560 
				CHANNELS 3 Zrotation Xrotation Yrotation
				JOINT head
				{
					OFFSET -0.243840 7.071330 1.219200 
					CHANNELS 3 Zrotation Xrotation Yrotation
					End Site
					{
						OFFSET 1.000000 0.000000 0.000000 
					}
				}
			}
			JOINT rCollar
			{
				OFFSET -2.682240 19.263399 -4.876800 
				CHANNELS 3 Zrotation Xrotation Yrotation
				JOINT rShldr
				{
					OFFSET -8.778240 -1.950730 1.463040 
					CHANNELS 3 Zrotation Xrotation Yrotation
					JOINT rForeArm
					{
						OFFSET -28.174200 -1.711500 0.487680 
						CHANNELS 3 Zrotation Xrotation Yrotation
						JOINT rHand
						{
							OFFSET -22.587900 0.773209 7.071360 
							CHANNELS 3 Zrotation Xrotation Yrotation
							End Site
							{
								OFFSET -1.692250 -0.517670 -0.607171 
							}
						}
					}
				}
			}
			JOINT lCollar
			{
				OFFSET 2.682240 19.263399 -4.876800 
				CHANNELS 3 Zrotation Xrotation Yrotation
				JOINT lShldr
				{
					OFFSET 8.778240 -1.950730 1.463040 
					CHANNELS 3 Zrotation Xrotation Yrotation
					JOINT lForeArm
					{
						OFFSET 28.174200 -1.711500 0.487680 
						CHANNELS 3 Zrotation Xrotation Yrotation
						JOINT lHand
						{
							OFFSET 22.587900 0.773209 7.071360 
							CHANNELS 3 Zrotation Xrotation Yrotation
							End Site
							{
								OFFSET 1.692250 -0.517670 -0.607171 
							}
						}
					}
				}
			}
		}
	}
	JOINT rButtock
	{
		OFFSET -8.778240 4.350840 1.219200 
		CHANNELS 3 Zrotation Xrotation Yrotation
		JOINT rThigh
		{
			OFFSET 0.000000 -1.706870 -2.194560 
			CHANNELS 3 Zrotation Xrotation Yrotation
			JOINT rShin
			{
				OFFSET 0.000000 -36.819901 0.731520 
				CHANNELS 3 Zrotation Xrotation Yrotation
				JOINT rFoot
				{
					OFFSET 0.731520 -45.110401 -5.120640 
					CHANNELS 3 Zrotation Xrotation Yrotation
					End Site
					{
						OFFSET -1.122100 -3.699640 12.103000 
					}
				}
			}
		}
	}
	JOINT lButtock
	{
		OFFSET 8.778240 4.350840 1.219200 
		CHANNELS 3 Zrotation Xrotation Yrotation
		JOINT lThigh
		{
			OFFSET 0.000000 -1.706870 -2.194560 
			CHANNELS 3 Zrotation Xrotation Yrotation
			JOINT lShin
			{
				OFFSET 0.000000 -36.819901 0.731520 
				CHANNELS 3 Zrotation Xrotation Yrotation
				JOINT lFoot
				{
					OFFSET -0.731520 -45.110401 -5.120640 
					CHANNELS 3 Zrotation Xrotation Yrotation
					End Site
					{
						OFFSET 1.122100 -3.699640 12.103000 
					}
				}
			}
		}
	}
}
MOTION
Frames: 12
Frame Time: 0.008333
49.825001 83.886902 -75.260498 -5.127800 -37.553600 3.156100 2.829020 0.386278 -1.958150 5.428730 -1.909390 -0.425457 -17.645399 6.742850 -8.576130 20.125900 2.227280 -14.795000 0.000000 0.000000 0.000000 74.996803 2.362360 -4.283190 -12.636400 -5.905090 22.848499 -0.109860 -9.408060 -1.334360 0.000000 0.000000 0.000000 -79.508904 25.622000 -2.425810 12.188800 -5.581920 -21.975599 0.243724 13.921500 -1.996370 -0.000000 0.000000 -0.000000 -1.850640 -18.199100 7.616090 -0.234526 35.576401 0.596215 -2.399490 -12.964200 -6.683590 0.000000 0.000000 0.000000 3.116110 -9.638120 -0.144378 0.204184 33.879200 -0.705079 6.878480 -20.273600 15.381600 
49.838501 83.884697 -75.256203 -5.113100 -37.531700 3.162300 2.731430 0.407629 -2.011460 5.468530 -1.906100 -0.439915 -17.580000 6.464990 -8.614960 20.172701 2.489340 -14.855600 -0.000000 -0.000000 0.000000 74.976402 2.242860 -4.181810 -12.611700 -5.886910 22.800100 -0.108968 -9.367620 -1.328530 -0.000000 -0.000000 0.000000 -79.491096 25.529400 -2.492500 12.147000 -5.552250 -21.894400 0.238344 13.770600 -1.973870 -0.000000 0.000000 -0.000000 -1.888290 -18.208500 7.615400 -0.234726 35.604500 0.596695 -2.397250 -13.000100 -6.664940 0.000000 0.000000 0.000000 3.106560 -9.664870 -0.105420 0.203024 33.889500 -0.705957 6.825710 -20.253401 15.276600 
49.855900 83.883499 -75.248001 -5.129200 -37.389301 3.173700 2.631900 0.429467 -2.060440 5.511620 -1.906490 -0.452899 -17.526300 6.198100 -8.655580 20.238300 2.741240 -14.919500 -0.000000 -0.000000 -0.000000 74.957901 2.177330 -4.090360 -12.594000 -5.873920 22.765499 -0.109150 -9.375460 -1.329660 -0.000000 -0.000000 -0.000000 -79.470200 25.445801 -2.563800 12.103100 -5.521150 -21.809299 0.232178 13.594800 -1.947680 -0.000000 0.000000 -0.000000 -1.924200 -18.221300 7.616110 -0.235109 35.635300 0.597335 -2.396160 -13.030700 -6.651610 0.000000 0.000000 0.000000 3.098230 -9.693880 -0.062837 0.201967 33.901600 -0.707077 6.774430 -20.224701 15.180300 
49.879902 83.885399 -75.225899 -5.033100 -37.309399 3.076800 2.559610 0.435223 -2.071940 5.545990 -1.913230 -0.455084 -17.538099 6.040150 -8.692230 20.343300 2.903840 -14.979700 -0.000000 -0.000000 -0.000000 74.931503 2.160010 -4.046860 -12.594700 -5.874480 22.766899 -0.111034 -9.460060 -1.341860 -0.000000 -0.000000 -0.000000 -79.477997 25.403700 -2.607080 12.064700 -5.494050 -21.735100 0.225971 13.416100 -1.921100 -0.000000 0.000000 -0.000000 -1.965620 -18.232700 7.609630 -0.235793 35.661999 0.597807 -2.397800 -13.044800 -6.652070 0.000000 0.000000 0.000000 3.073030 -9.711000 -0.039866 0.201037 33.911201 -0.707896 6.748810 -20.190100 15.143100 
49.918400 83.884399 -75.199997 -4.802500 -37.330299 2.919900 2.529660 0.414959 -2.021410 5.567350 -1.930950 -0.439329 -17.656700 6.050000 -8.721030 20.524000 2.937840 -15.032100 -0.000000 -0.000000 -0.000000 74.888100 2.186570 -4.078020 -12.621000 -5.893790 22.818300 -0.115724 -9.663420 -1.371230 -0.000000 -0.000000 -0.000000 -79.529099 25.429501 -2.609960 12.034900 -5.473040 -21.677401 0.218409 13.197100 -1.888560 -0.000000 0.000000 -0.000000 -2.016620 -18.243700 7.591200 -0.237133 35.683498 0.597964 -2.403470 -13.029900 -6.673660 0.000000 0.000000 0.000000 3.020320 -9.708960 -0.043700 0.199931 33.918800 -0.708285 6.765460 -20.138599 15.208100 
49.941200 83.881203 -75.196602 -4.729900 -37.318699 2.891700 2.524130 0.379349 -1.931750 5.582480 -1.956930 -0.412159 -17.844299 6.164450 -8.745810 20.758699 2.891610 -15.081100 -0.000000 -0.000000 -0.000000 74.835197 2.261010 -4.158010 -12.665400 -5.926360 22.905199 -0.122922 -9.958850 -1.413990 -0.000000 -0.000000 -0.000000 -79.604401 25.500000 -2.591070 12.009300 -5.455030 -21.627800 0.209779 12.940500 -1.850530 -0.000000 0.000000 -0.000000 -2.072650 -18.256001 7.566230 -0.238960 35.702999 0.598000 -2.412000 -12.995300 -6.710170 0.000000 0.000000 0.000000 2.951680 -9.696480 -0.061617 0.198739 33.926201 -0.708528 6.807810 -20.072599 15.338300 
49.941101 83.880302 -75.208397 -4.801200 -37.313801 2.939500 2.522530 0.342744 -1.841050 5.596010 -1.982760 -0.384744 -18.035000 6.298330 -8.772170 20.980801 2.817600 -15.131800 -0.000000 -0.000000 -0.000000 74.787399 2.390110 -4.246180 -12.717300 -5.964540 23.007000 -0.131002 -10.271900 -1.459420 -0.000000 -0.000000 -0.000000 -79.685204 25.573500 -2.564500 11.984500 -5.437690 -21.579901 0.202866 12.728200 -1.819140 -0.000000 0.000000 -0.000000 -2.127930 -18.266100 7.541330 -0.240597 35.721001 0.598102 -2.421340 -12.961700 -6.749730 0.000000 0.000000 0.000000 2.882320 -9.683370 -0.086982 0.198074 33.930599 -0.708704 6.850450 -20.015400 15.464700 
49.943802 83.880203 -75.216103 -4.869500 -37.267399 2.976900 2.504220 0.319501 -1.787370 5.612510 -2.000020 -0.368252 -18.163200 6.366500 -8.805630 21.123400 2.768200 -15.189300 -0.000000 -0.000000 -0.000000 74.758797 2.580660 -4.301850 -12.766400 -6.000760 23.103300 -0.137904 -10.528100 -1.496680 -0.000000 -0.000000 -0.000000 -79.752701 25.608101 -2.544380 11.957300 -5.418710 -21.527399 0.200116 12.642000 -1.806420 -0.000000 0.000000 -0.000000 -2.176660 -18.270201 7.523130 -0.241373 35.737598 0.598462 -2.429540 -12.950100 -6.780470 0.000000 0.000000 0.000000 2.827450 -9.679460 -0.113162 0.198548 33.929298 -0.708894 6.868370 -19.990601 15.517900 
49.957401 83.876503 -75.225304 -4.943100 -37.135399 3.053700 2.455310 0.317097 -1.783440 5.636250 -2.004690 -0.366412 -18.199800 6.327370 -8.853080 21.143700 2.761560 -15.261500 -0.000000 -0.000000 0.000000 74.752899 2.866940 -4.311510 -12.812300 -6.034830 23.193399 -0.142483 -10.694900 -1.520970 -0.000000 -0.000000 0.000000 -79.800301 25.597300 -2.534230 11.926000 -5.396860 -21.466801 0.203309 12.742800 -1.821290 -0.000000 0.000000 -0.000000 -2.221840 -18.267300 7.515460 -0.240530 35.755600 0.599205 -2.432950 -12.973700 -6.787930 0.000000 0.000000 0.000000 2.785920 -9.684700 -0.144320 0.200847 33.915001 -0.709124 6.853210 -20.016100 15.469100 
49.995602 83.868301 -75.224701 -4.888000 -36.962799 3.086000 2.389570 0.326661 -1.808110 5.663760 -2.001830 -0.373017 -18.183800 6.232680 -8.909760 21.085699 2.768340 -15.343600 -0.000000 -0.000000 0.000000 74.762001 3.234520 -4.297840 -12.859800 -6.070180 23.286699 -0.145811 -10.816100 -1.538630 -0.000000 -0.000000 0.000000 -79.838402 25.561800 -2.526630 11.892500 -5.373570 -21.402100 0.210831 12.973900 -1.855460 -0.000000 0.000000 -0.000000 -2.265040 -18.259199 7.514120 -0.238620 35.773800 0.600205 -2.433660 -13.018900 -6.782190 0.000000 0.000000 0.000000 2.751340 -9.694750 -0.182019 0.204469 33.891399 -0.709349 6.818800 -20.075399 15.358500 
50.028198 83.868301 -75.205002 -4.734600 -36.877800 2.973800 2.327720 0.338031 -1.848570 5.688010 -1.996740 -0.384337 -18.151800 6.137240 -8.963630 21.013100 2.769620 -15.421200 -0.000000 -0.000000 0.000000 74.783203 3.617200 -4.274460 -12.906000 -6.104670 23.377600 -0.148956 -10.932400 -1.555570 -0.000000 -0.000000 0.000000 -79.874199 25.501101 -2.519250 11.859300 -5.350490 -21.337999 0.219850 13.240800 -1.895040 -0.000000 0.000000 -0.000000 -2.298340 -18.247000 7.513600 -0.236933 35.787102 0.601273 -2.438420 -13.065900 -6.788280 0.000000 0.000000 0.000000 2.731040 -9.712950 -0.215730 0.208247 33.871899 -0.709545 6.773750 -20.140499 15.221300 
50.022701 83.874397 -75.199600 -4.717300 -36.941700 2.899100 2.290460 0.341044 -1.892050 5.701930 -1.994680 -0.396639 -18.139999 6.095850 -9.002620 20.989500 2.746510 -15.480100 -0.000000 -0.000000 0.000000 74.814301 3.948720 -4.254900 -12.948100 -6.136160 23.460600 -0.153095 -11.084200 -1.577710 -0.000000 -0.000000 0.000000 -79.914597 25.414900 -2.509760 11.828800 -5.329270 -21.278999 0.227105 13.448900 -1.925980 -0.000000 0.000000 -0.000000 -2.313830 -18.231701 7.508440 -0.236756 35.790501 0.602220 -2.454020 -13.095100 -6.831240 0.000000 0.000000 0.000000 2.732350 -9.742690 -0.234924 0.211012 33.869999 -0.709683 6.726970 -20.183201 15.092500 
